<mxfile host="Electron" modified="2024-01-26T09:10:29.226Z" agent="Mozilla/5.0 (Windows NT 10.0; Win64; x64) AppleWebKit/537.36 (KHTML, like Gecko) draw.io/22.1.18 Chrome/120.0.6099.199 Electron/28.1.2 Safari/537.36" etag="iwGhVQG1ABfCpi0T-2TB" version="22.1.18" type="device">
  <diagram id="C5RBs43oDa-KdzZeNtuy" name="Page-1">
    <mxGraphModel dx="1518" dy="1900" grid="1" gridSize="10" guides="1" tooltips="1" connect="1" arrows="1" fold="1" page="1" pageScale="1" pageWidth="827" pageHeight="1169" math="0" shadow="0">
      <root>
        <mxCell id="WIyWlLk6GJQsqaUBKTNV-0" />
        <mxCell id="WIyWlLk6GJQsqaUBKTNV-1" parent="WIyWlLk6GJQsqaUBKTNV-0" />
        <mxCell id="9GDKxs4A73w5jLk5scy1-5" value="" style="ellipse;html=1;shape=startState;fillColor=#000000;strokeColor=#ff0000;" vertex="1" parent="WIyWlLk6GJQsqaUBKTNV-1">
          <mxGeometry x="30" y="33" width="30" height="30" as="geometry" />
        </mxCell>
        <mxCell id="9GDKxs4A73w5jLk5scy1-6" value="" style="edgeStyle=orthogonalEdgeStyle;html=1;verticalAlign=bottom;endArrow=open;endSize=8;strokeColor=#ff0000;rounded=0;" edge="1" source="9GDKxs4A73w5jLk5scy1-5" parent="WIyWlLk6GJQsqaUBKTNV-1">
          <mxGeometry relative="1" as="geometry">
            <mxPoint x="160" y="48" as="targetPoint" />
          </mxGeometry>
        </mxCell>
        <mxCell id="9GDKxs4A73w5jLk5scy1-13" style="edgeStyle=orthogonalEdgeStyle;rounded=0;orthogonalLoop=1;jettySize=auto;html=1;exitX=1;exitY=0.5;exitDx=0;exitDy=0;entryX=0;entryY=0.5;entryDx=0;entryDy=0;" edge="1" parent="WIyWlLk6GJQsqaUBKTNV-1" source="9GDKxs4A73w5jLk5scy1-10" target="9GDKxs4A73w5jLk5scy1-11">
          <mxGeometry relative="1" as="geometry" />
        </mxCell>
        <mxCell id="9GDKxs4A73w5jLk5scy1-10" value="User authenticates" style="rounded=1;whiteSpace=wrap;html=1;" vertex="1" parent="WIyWlLk6GJQsqaUBKTNV-1">
          <mxGeometry x="160" y="18" width="120" height="60" as="geometry" />
        </mxCell>
        <mxCell id="9GDKxs4A73w5jLk5scy1-16" style="edgeStyle=orthogonalEdgeStyle;rounded=0;orthogonalLoop=1;jettySize=auto;html=1;exitX=0.5;exitY=0;exitDx=0;exitDy=0;entryX=0.5;entryY=0;entryDx=0;entryDy=0;" edge="1" parent="WIyWlLk6GJQsqaUBKTNV-1" source="9GDKxs4A73w5jLk5scy1-11" target="9GDKxs4A73w5jLk5scy1-10">
          <mxGeometry relative="1" as="geometry">
            <Array as="points">
              <mxPoint x="400" y="-20" />
              <mxPoint x="220" y="-20" />
            </Array>
          </mxGeometry>
        </mxCell>
        <mxCell id="9GDKxs4A73w5jLk5scy1-18" value="No" style="edgeLabel;html=1;align=center;verticalAlign=middle;resizable=0;points=[];" vertex="1" connectable="0" parent="9GDKxs4A73w5jLk5scy1-16">
          <mxGeometry x="-0.1913" y="-2" relative="1" as="geometry">
            <mxPoint as="offset" />
          </mxGeometry>
        </mxCell>
        <mxCell id="9GDKxs4A73w5jLk5scy1-19" style="edgeStyle=orthogonalEdgeStyle;rounded=0;orthogonalLoop=1;jettySize=auto;html=1;exitX=1;exitY=0.5;exitDx=0;exitDy=0;entryX=0;entryY=0.5;entryDx=0;entryDy=0;" edge="1" parent="WIyWlLk6GJQsqaUBKTNV-1" source="9GDKxs4A73w5jLk5scy1-11" target="9GDKxs4A73w5jLk5scy1-14">
          <mxGeometry relative="1" as="geometry" />
        </mxCell>
        <mxCell id="9GDKxs4A73w5jLk5scy1-20" value="yes" style="edgeLabel;html=1;align=center;verticalAlign=middle;resizable=0;points=[];" vertex="1" connectable="0" parent="9GDKxs4A73w5jLk5scy1-19">
          <mxGeometry x="-0.0667" relative="1" as="geometry">
            <mxPoint as="offset" />
          </mxGeometry>
        </mxCell>
        <mxCell id="9GDKxs4A73w5jLk5scy1-11" value="auth. valid?" style="rhombus;whiteSpace=wrap;html=1;" vertex="1" parent="WIyWlLk6GJQsqaUBKTNV-1">
          <mxGeometry x="360" y="8" width="80" height="80" as="geometry" />
        </mxCell>
        <mxCell id="9GDKxs4A73w5jLk5scy1-23" style="edgeStyle=orthogonalEdgeStyle;rounded=0;orthogonalLoop=1;jettySize=auto;html=1;exitX=1;exitY=0.5;exitDx=0;exitDy=0;entryX=0;entryY=0.5;entryDx=0;entryDy=0;" edge="1" parent="WIyWlLk6GJQsqaUBKTNV-1" source="9GDKxs4A73w5jLk5scy1-14">
          <mxGeometry relative="1" as="geometry">
            <mxPoint x="710" y="48" as="targetPoint" />
          </mxGeometry>
        </mxCell>
        <mxCell id="9GDKxs4A73w5jLk5scy1-14" value="show user interface" style="rounded=1;whiteSpace=wrap;html=1;" vertex="1" parent="WIyWlLk6GJQsqaUBKTNV-1">
          <mxGeometry x="500" y="18" width="120" height="60" as="geometry" />
        </mxCell>
        <mxCell id="9GDKxs4A73w5jLk5scy1-27" style="edgeStyle=orthogonalEdgeStyle;rounded=0;orthogonalLoop=1;jettySize=auto;html=1;exitX=0.5;exitY=1;exitDx=0;exitDy=0;" edge="1" parent="WIyWlLk6GJQsqaUBKTNV-1" source="9GDKxs4A73w5jLk5scy1-24" target="9GDKxs4A73w5jLk5scy1-26">
          <mxGeometry relative="1" as="geometry" />
        </mxCell>
        <mxCell id="9GDKxs4A73w5jLk5scy1-24" value="user selected withdraw option" style="rounded=1;whiteSpace=wrap;html=1;" vertex="1" parent="WIyWlLk6GJQsqaUBKTNV-1">
          <mxGeometry x="707" y="18" width="120" height="60" as="geometry" />
        </mxCell>
        <mxCell id="9GDKxs4A73w5jLk5scy1-31" style="edgeStyle=orthogonalEdgeStyle;rounded=0;orthogonalLoop=1;jettySize=auto;html=1;exitX=0.5;exitY=1;exitDx=0;exitDy=0;entryX=0.5;entryY=1;entryDx=0;entryDy=0;" edge="1" parent="WIyWlLk6GJQsqaUBKTNV-1" source="9GDKxs4A73w5jLk5scy1-25" target="9GDKxs4A73w5jLk5scy1-28">
          <mxGeometry relative="1" as="geometry" />
        </mxCell>
        <mxCell id="9GDKxs4A73w5jLk5scy1-32" value="no" style="edgeLabel;html=1;align=center;verticalAlign=middle;resizable=0;points=[];" vertex="1" connectable="0" parent="9GDKxs4A73w5jLk5scy1-31">
          <mxGeometry x="-0.2476" y="-1" relative="1" as="geometry">
            <mxPoint as="offset" />
          </mxGeometry>
        </mxCell>
        <mxCell id="9GDKxs4A73w5jLk5scy1-43" style="edgeStyle=orthogonalEdgeStyle;rounded=0;orthogonalLoop=1;jettySize=auto;html=1;exitX=0;exitY=0.5;exitDx=0;exitDy=0;entryX=1;entryY=0.5;entryDx=0;entryDy=0;" edge="1" parent="WIyWlLk6GJQsqaUBKTNV-1" source="9GDKxs4A73w5jLk5scy1-53" target="9GDKxs4A73w5jLk5scy1-40">
          <mxGeometry relative="1" as="geometry" />
        </mxCell>
        <mxCell id="9GDKxs4A73w5jLk5scy1-62" value="yes" style="edgeLabel;html=1;align=center;verticalAlign=middle;resizable=0;points=[];" vertex="1" connectable="0" parent="9GDKxs4A73w5jLk5scy1-43">
          <mxGeometry x="-0.32" y="1" relative="1" as="geometry">
            <mxPoint as="offset" />
          </mxGeometry>
        </mxCell>
        <mxCell id="9GDKxs4A73w5jLk5scy1-25" value="amount modulo 10?" style="rhombus;whiteSpace=wrap;html=1;" vertex="1" parent="WIyWlLk6GJQsqaUBKTNV-1">
          <mxGeometry x="600" y="230" width="80" height="80" as="geometry" />
        </mxCell>
        <mxCell id="9GDKxs4A73w5jLk5scy1-56" style="edgeStyle=orthogonalEdgeStyle;rounded=0;orthogonalLoop=1;jettySize=auto;html=1;exitX=0.5;exitY=1;exitDx=0;exitDy=0;entryX=0.5;entryY=0;entryDx=0;entryDy=0;" edge="1" parent="WIyWlLk6GJQsqaUBKTNV-1" source="9GDKxs4A73w5jLk5scy1-26" target="9GDKxs4A73w5jLk5scy1-28">
          <mxGeometry relative="1" as="geometry" />
        </mxCell>
        <mxCell id="9GDKxs4A73w5jLk5scy1-26" value="show withdraw interface" style="rounded=1;whiteSpace=wrap;html=1;" vertex="1" parent="WIyWlLk6GJQsqaUBKTNV-1">
          <mxGeometry x="707" y="120" width="120" height="60" as="geometry" />
        </mxCell>
        <mxCell id="9GDKxs4A73w5jLk5scy1-30" style="edgeStyle=orthogonalEdgeStyle;rounded=0;orthogonalLoop=1;jettySize=auto;html=1;exitX=0;exitY=0.5;exitDx=0;exitDy=0;entryX=1;entryY=0.5;entryDx=0;entryDy=0;" edge="1" parent="WIyWlLk6GJQsqaUBKTNV-1" source="9GDKxs4A73w5jLk5scy1-28" target="9GDKxs4A73w5jLk5scy1-25">
          <mxGeometry relative="1" as="geometry" />
        </mxCell>
        <mxCell id="9GDKxs4A73w5jLk5scy1-28" value="insert amount to withdraw" style="rounded=1;whiteSpace=wrap;html=1;" vertex="1" parent="WIyWlLk6GJQsqaUBKTNV-1">
          <mxGeometry x="707" y="240" width="120" height="60" as="geometry" />
        </mxCell>
        <mxCell id="9GDKxs4A73w5jLk5scy1-34" style="edgeStyle=orthogonalEdgeStyle;rounded=0;orthogonalLoop=1;jettySize=auto;html=1;exitX=0.5;exitY=1;exitDx=0;exitDy=0;entryX=0.5;entryY=1;entryDx=0;entryDy=0;" edge="1" parent="WIyWlLk6GJQsqaUBKTNV-1" source="9GDKxs4A73w5jLk5scy1-33" target="9GDKxs4A73w5jLk5scy1-28">
          <mxGeometry relative="1" as="geometry" />
        </mxCell>
        <mxCell id="9GDKxs4A73w5jLk5scy1-46" value="no" style="edgeLabel;html=1;align=center;verticalAlign=middle;resizable=0;points=[];" vertex="1" connectable="0" parent="9GDKxs4A73w5jLk5scy1-34">
          <mxGeometry x="-0.3308" y="-4" relative="1" as="geometry">
            <mxPoint as="offset" />
          </mxGeometry>
        </mxCell>
        <mxCell id="9GDKxs4A73w5jLk5scy1-48" style="edgeStyle=orthogonalEdgeStyle;rounded=0;orthogonalLoop=1;jettySize=auto;html=1;exitX=0;exitY=0.5;exitDx=0;exitDy=0;entryX=0;entryY=0.5;entryDx=0;entryDy=0;" edge="1" parent="WIyWlLk6GJQsqaUBKTNV-1" source="9GDKxs4A73w5jLk5scy1-33" target="9GDKxs4A73w5jLk5scy1-47">
          <mxGeometry relative="1" as="geometry" />
        </mxCell>
        <mxCell id="9GDKxs4A73w5jLk5scy1-49" value="yes" style="edgeLabel;html=1;align=center;verticalAlign=middle;resizable=0;points=[];" vertex="1" connectable="0" parent="9GDKxs4A73w5jLk5scy1-48">
          <mxGeometry x="-0.124" relative="1" as="geometry">
            <mxPoint as="offset" />
          </mxGeometry>
        </mxCell>
        <mxCell id="9GDKxs4A73w5jLk5scy1-33" value="value &amp;gt; asking amount?" style="rhombus;whiteSpace=wrap;html=1;" vertex="1" parent="WIyWlLk6GJQsqaUBKTNV-1">
          <mxGeometry x="30" y="230" width="80" height="80" as="geometry" />
        </mxCell>
        <mxCell id="9GDKxs4A73w5jLk5scy1-44" style="edgeStyle=orthogonalEdgeStyle;rounded=0;orthogonalLoop=1;jettySize=auto;html=1;exitX=0;exitY=0.5;exitDx=0;exitDy=0;entryX=1;entryY=0.5;entryDx=0;entryDy=0;" edge="1" parent="WIyWlLk6GJQsqaUBKTNV-1" source="9GDKxs4A73w5jLk5scy1-40" target="9GDKxs4A73w5jLk5scy1-33">
          <mxGeometry relative="1" as="geometry" />
        </mxCell>
        <mxCell id="9GDKxs4A73w5jLk5scy1-40" value="reserve money" style="rounded=1;whiteSpace=wrap;html=1;" vertex="1" parent="WIyWlLk6GJQsqaUBKTNV-1">
          <mxGeometry x="130" y="240" width="120" height="60" as="geometry" />
        </mxCell>
        <mxCell id="9GDKxs4A73w5jLk5scy1-67" style="edgeStyle=orthogonalEdgeStyle;rounded=0;orthogonalLoop=1;jettySize=auto;html=1;exitX=1;exitY=0.5;exitDx=0;exitDy=0;entryX=0;entryY=0.5;entryDx=0;entryDy=0;" edge="1" parent="WIyWlLk6GJQsqaUBKTNV-1" source="9GDKxs4A73w5jLk5scy1-47" target="9GDKxs4A73w5jLk5scy1-66">
          <mxGeometry relative="1" as="geometry" />
        </mxCell>
        <mxCell id="9GDKxs4A73w5jLk5scy1-47" value="withdraw money to the customer" style="rounded=1;whiteSpace=wrap;html=1;" vertex="1" parent="WIyWlLk6GJQsqaUBKTNV-1">
          <mxGeometry x="50" y="400" width="120" height="60" as="geometry" />
        </mxCell>
        <mxCell id="9GDKxs4A73w5jLk5scy1-54" value="" style="edgeStyle=orthogonalEdgeStyle;rounded=0;orthogonalLoop=1;jettySize=auto;html=1;exitX=0;exitY=0.5;exitDx=0;exitDy=0;entryX=1;entryY=0.5;entryDx=0;entryDy=0;" edge="1" parent="WIyWlLk6GJQsqaUBKTNV-1" source="9GDKxs4A73w5jLk5scy1-57" target="9GDKxs4A73w5jLk5scy1-53">
          <mxGeometry relative="1" as="geometry">
            <mxPoint x="470" y="270" as="sourcePoint" />
            <mxPoint x="290" y="270" as="targetPoint" />
          </mxGeometry>
        </mxCell>
        <mxCell id="9GDKxs4A73w5jLk5scy1-60" style="edgeStyle=orthogonalEdgeStyle;rounded=0;orthogonalLoop=1;jettySize=auto;html=1;exitX=0.5;exitY=0;exitDx=0;exitDy=0;entryX=0;entryY=0.5;entryDx=0;entryDy=0;" edge="1" parent="WIyWlLk6GJQsqaUBKTNV-1" source="9GDKxs4A73w5jLk5scy1-53" target="9GDKxs4A73w5jLk5scy1-26">
          <mxGeometry relative="1" as="geometry" />
        </mxCell>
        <mxCell id="9GDKxs4A73w5jLk5scy1-61" value="no" style="edgeLabel;html=1;align=center;verticalAlign=middle;resizable=0;points=[];" vertex="1" connectable="0" parent="9GDKxs4A73w5jLk5scy1-60">
          <mxGeometry x="-0.187" y="2" relative="1" as="geometry">
            <mxPoint as="offset" />
          </mxGeometry>
        </mxCell>
        <mxCell id="9GDKxs4A73w5jLk5scy1-53" value="approved?" style="rhombus;whiteSpace=wrap;html=1;" vertex="1" parent="WIyWlLk6GJQsqaUBKTNV-1">
          <mxGeometry x="300" y="230" width="80" height="80" as="geometry" />
        </mxCell>
        <mxCell id="9GDKxs4A73w5jLk5scy1-58" value="" style="edgeStyle=orthogonalEdgeStyle;rounded=0;orthogonalLoop=1;jettySize=auto;html=1;exitX=0;exitY=0.5;exitDx=0;exitDy=0;entryX=1;entryY=0.5;entryDx=0;entryDy=0;" edge="1" parent="WIyWlLk6GJQsqaUBKTNV-1" source="9GDKxs4A73w5jLk5scy1-25" target="9GDKxs4A73w5jLk5scy1-57">
          <mxGeometry relative="1" as="geometry">
            <mxPoint x="580" y="270" as="sourcePoint" />
            <mxPoint x="420" y="270" as="targetPoint" />
          </mxGeometry>
        </mxCell>
        <mxCell id="9GDKxs4A73w5jLk5scy1-59" value="yes" style="edgeLabel;html=1;align=center;verticalAlign=middle;resizable=0;points=[];" vertex="1" connectable="0" parent="9GDKxs4A73w5jLk5scy1-58">
          <mxGeometry x="-0.2333" relative="1" as="geometry">
            <mxPoint as="offset" />
          </mxGeometry>
        </mxCell>
        <mxCell id="9GDKxs4A73w5jLk5scy1-57" value="approve customers withdrw amount" style="rounded=1;whiteSpace=wrap;html=1;" vertex="1" parent="WIyWlLk6GJQsqaUBKTNV-1">
          <mxGeometry x="414" y="240" width="120" height="60" as="geometry" />
        </mxCell>
        <mxCell id="9GDKxs4A73w5jLk5scy1-64" value="customer gets information to take the money" style="shape=parallelogram;perimeter=parallelogramPerimeter;whiteSpace=wrap;html=1;fixedSize=1;" vertex="1" parent="WIyWlLk6GJQsqaUBKTNV-1">
          <mxGeometry x="40" y="510" width="120" height="60" as="geometry" />
        </mxCell>
        <mxCell id="9GDKxs4A73w5jLk5scy1-65" value="" style="endArrow=none;dashed=1;html=1;rounded=0;entryX=0.5;entryY=1;entryDx=0;entryDy=0;" edge="1" parent="WIyWlLk6GJQsqaUBKTNV-1" source="9GDKxs4A73w5jLk5scy1-64" target="9GDKxs4A73w5jLk5scy1-47">
          <mxGeometry width="50" height="50" relative="1" as="geometry">
            <mxPoint x="430" y="560" as="sourcePoint" />
            <mxPoint x="480" y="510" as="targetPoint" />
          </mxGeometry>
        </mxCell>
        <mxCell id="9GDKxs4A73w5jLk5scy1-72" style="edgeStyle=orthogonalEdgeStyle;rounded=0;orthogonalLoop=1;jettySize=auto;html=1;exitX=0.5;exitY=0;exitDx=0;exitDy=0;entryX=1;entryY=0.5;entryDx=0;entryDy=0;" edge="1" parent="WIyWlLk6GJQsqaUBKTNV-1" source="9GDKxs4A73w5jLk5scy1-66" target="9GDKxs4A73w5jLk5scy1-26">
          <mxGeometry relative="1" as="geometry">
            <Array as="points">
              <mxPoint x="260" y="360" />
              <mxPoint x="847" y="360" />
              <mxPoint x="847" y="150" />
            </Array>
          </mxGeometry>
        </mxCell>
        <mxCell id="9GDKxs4A73w5jLk5scy1-73" value="no" style="edgeLabel;html=1;align=center;verticalAlign=middle;resizable=0;points=[];" vertex="1" connectable="0" parent="9GDKxs4A73w5jLk5scy1-72">
          <mxGeometry x="-0.1806" y="-1" relative="1" as="geometry">
            <mxPoint as="offset" />
          </mxGeometry>
        </mxCell>
        <mxCell id="9GDKxs4A73w5jLk5scy1-75" style="edgeStyle=orthogonalEdgeStyle;rounded=0;orthogonalLoop=1;jettySize=auto;html=1;exitX=1;exitY=0.5;exitDx=0;exitDy=0;" edge="1" parent="WIyWlLk6GJQsqaUBKTNV-1" source="9GDKxs4A73w5jLk5scy1-66" target="9GDKxs4A73w5jLk5scy1-74">
          <mxGeometry relative="1" as="geometry" />
        </mxCell>
        <mxCell id="9GDKxs4A73w5jLk5scy1-76" value="yes" style="edgeLabel;html=1;align=center;verticalAlign=middle;resizable=0;points=[];" vertex="1" connectable="0" parent="9GDKxs4A73w5jLk5scy1-75">
          <mxGeometry x="-0.1667" y="-2" relative="1" as="geometry">
            <mxPoint as="offset" />
          </mxGeometry>
        </mxCell>
        <mxCell id="9GDKxs4A73w5jLk5scy1-66" value="customer took money?" style="rhombus;whiteSpace=wrap;html=1;" vertex="1" parent="WIyWlLk6GJQsqaUBKTNV-1">
          <mxGeometry x="220" y="390" width="80" height="80" as="geometry" />
        </mxCell>
        <mxCell id="9GDKxs4A73w5jLk5scy1-69" value="customer has to select &quot;yes&quot; or &quot;no&quot;" style="shape=parallelogram;perimeter=parallelogramPerimeter;whiteSpace=wrap;html=1;fixedSize=1;" vertex="1" parent="WIyWlLk6GJQsqaUBKTNV-1">
          <mxGeometry x="185" y="510" width="150" height="60" as="geometry" />
        </mxCell>
        <mxCell id="9GDKxs4A73w5jLk5scy1-71" value="" style="endArrow=none;dashed=1;html=1;rounded=0;entryX=0.5;entryY=1;entryDx=0;entryDy=0;exitX=0.5;exitY=0;exitDx=0;exitDy=0;" edge="1" parent="WIyWlLk6GJQsqaUBKTNV-1" source="9GDKxs4A73w5jLk5scy1-69" target="9GDKxs4A73w5jLk5scy1-66">
          <mxGeometry width="50" height="50" relative="1" as="geometry">
            <mxPoint x="430" y="560" as="sourcePoint" />
            <mxPoint x="480" y="510" as="targetPoint" />
          </mxGeometry>
        </mxCell>
        <mxCell id="9GDKxs4A73w5jLk5scy1-81" style="edgeStyle=orthogonalEdgeStyle;rounded=0;orthogonalLoop=1;jettySize=auto;html=1;exitX=1;exitY=0.5;exitDx=0;exitDy=0;entryX=0.5;entryY=0;entryDx=0;entryDy=0;" edge="1" parent="WIyWlLk6GJQsqaUBKTNV-1" source="9GDKxs4A73w5jLk5scy1-74" target="9GDKxs4A73w5jLk5scy1-14">
          <mxGeometry relative="1" as="geometry">
            <Array as="points">
              <mxPoint x="920" y="430" />
              <mxPoint x="920" y="-20" />
              <mxPoint x="560" y="-20" />
            </Array>
          </mxGeometry>
        </mxCell>
        <mxCell id="9GDKxs4A73w5jLk5scy1-74" value="update account&amp;nbsp;" style="rounded=1;whiteSpace=wrap;html=1;" vertex="1" parent="WIyWlLk6GJQsqaUBKTNV-1">
          <mxGeometry x="360" y="400" width="120" height="60" as="geometry" />
        </mxCell>
        <mxCell id="9GDKxs4A73w5jLk5scy1-78" value="write transaction log" style="shape=parallelogram;perimeter=parallelogramPerimeter;whiteSpace=wrap;html=1;fixedSize=1;" vertex="1" parent="WIyWlLk6GJQsqaUBKTNV-1">
          <mxGeometry x="348" y="510" width="146" height="60" as="geometry" />
        </mxCell>
        <mxCell id="9GDKxs4A73w5jLk5scy1-79" value="" style="endArrow=none;dashed=1;html=1;rounded=0;exitX=0.5;exitY=1;exitDx=0;exitDy=0;" edge="1" parent="WIyWlLk6GJQsqaUBKTNV-1" source="9GDKxs4A73w5jLk5scy1-74" target="9GDKxs4A73w5jLk5scy1-78">
          <mxGeometry width="50" height="50" relative="1" as="geometry">
            <mxPoint x="430" y="360" as="sourcePoint" />
            <mxPoint x="480" y="310" as="targetPoint" />
          </mxGeometry>
        </mxCell>
      </root>
    </mxGraphModel>
  </diagram>
</mxfile>
